HIERARCHY
ROOT Hips
{
 OFFSET 0.000000 0.000000 0.000000
 CHANNELS 6 Xposition Yposition Zposition Yrotation Xrotation Zrotation
 JOINT Chest
 {
  OFFSET 0.000000 9.585900 0.002600
  CHANNELS 3 Yrotation Xrotation Zrotation
  JOINT Chest2
  {
   OFFSET 0.000000 9.601200 -0.005300
   CHANNELS 3 Yrotation Xrotation Zrotation
   JOINT Chest3
   {
    OFFSET 0.000000 9.561800 0.000000
    CHANNELS 3 Yrotation Xrotation Zrotation
    JOINT Chest4
    {
     OFFSET 0.000000 9.552100 0.000000
     CHANNELS 3 Yrotation Xrotation Zrotation
     JOINT Neck
     {
      OFFSET 0.000000 14.453000 0.000000
      CHANNELS 3 Yrotation Xrotation Zrotation
      JOINT Head
      {
       OFFSET 0.000000 8.936500 -0.011300
       CHANNELS 3 Yrotation Xrotation Zrotation
       End Site
       {
        OFFSET 0.000000 17.073600 -0.006000
       }
      }
     }
     JOINT RightCollar
     {
      OFFSET -2.921100 9.558500 0.000000
      CHANNELS 3 Yrotation Xrotation Zrotation
      JOINT RightShoulder
      {
       OFFSET -13.519700 0.000000 0.000000
       CHANNELS 3 Yrotation Xrotation Zrotation
       JOINT RightElbow
       {
        OFFSET 0.000000 -29.696600 0.000000
        CHANNELS 3 Yrotation Xrotation Zrotation
        JOINT RightWrist
        {
         OFFSET 0.000000 -24.004700 0.000000
         CHANNELS 3 Yrotation Xrotation Zrotation
         End Site
         {
          OFFSET 0.000000 -17.728500 0.000000
         }
        }
       }
      }
     }
     JOINT LeftCollar
     {
      OFFSET 2.921100 9.558500 0.000000
      CHANNELS 3 Yrotation Xrotation Zrotation
      JOINT LeftShoulder
      {
       OFFSET 13.519700 0.000000 0.000000
       CHANNELS 3 Yrotation Xrotation Zrotation
       JOINT LeftElbow
       {
        OFFSET 0.000000 -29.696600 0.000000
        CHANNELS 3 Yrotation Xrotation Zrotation
        JOINT LeftWrist
        {
         OFFSET 0.000000 -24.004700 0.000000
         CHANNELS 3 Yrotation Xrotation Zrotation
         End Site
         {
          OFFSET 0.000000 -17.728500 0.000000
         }
        }
       }
      }
     }
    }
   }
  }
 }
 JOINT RightHip
 {
  OFFSET -7.771700 -0.012900 -0.001300
  CHANNELS 3 Yrotation Xrotation Zrotation
  JOINT RightKnee
  {
   OFFSET 0.000000 -40.869800 0.001200
   CHANNELS 3 Yrotation Xrotation Zrotation
   JOINT RightAnkle
   {
    OFFSET 0.000000 -39.717900 0.002100
    CHANNELS 3 Yrotation Xrotation Zrotation
    JOINT RightToe
    {
     OFFSET 0.000000 -4.965400 11.033500
     CHANNELS 3 Yrotation Xrotation Zrotation
     End Site
     {
      OFFSET 0.000000 -1.423100 5.872300
     }
    }
   }
  }
 }
 JOINT LeftHip
 {
  OFFSET 7.771700 -0.012900 -0.001300
  CHANNELS 3 Yrotation Xrotation Zrotation
  JOINT LeftKnee
  {
   OFFSET 0.000000 -40.869800 0.001200
   CHANNELS 3 Yrotation Xrotation Zrotation
   JOINT LeftAnkle
   {
    OFFSET 0.000000 -39.717900 0.002100
    CHANNELS 3 Yrotation Xrotation Zrotation
    JOINT LeftToe
    {
     OFFSET 0.000000 -4.965400 11.033500
     CHANNELS 3 Yrotation Xrotation Zrotation
     End Site
     {
      OFFSET 0.000000 -1.423100 5.872300
     }
    }
   }
  }
 }
}
MOTION
Frames: 8
Frame Time: 0.008333
-45.265474 50.322796 4.573825 164.126101 -21.739336 0.038376 2.264210 14.691043 4.428525 0.180423 1.396058 0.319020 0.307976 2.346611 0.538823 2.064676 13.221519 3.263607 1.006148 15.989928 -1.309654 2.339514 -6.063378 -2.795452 6.561071 6.016566 0.638686 10.234358 -29.091858 -17.818523 31.132205 -46.327524 -17.892690 3.995523 5.007560 -32.272612 -12.933476 0.918483 -1.391172 -6.668721 -25.888485 12.356154 -44.648008 -37.474998 27.353750 2.803916 -2.263880 35.230566 4.378041 -59.339523 -2.096082 -95.670713 79.116081 -99.284721 -4.647123 -11.824575 5.907202 -0.616921 1.017656 -0.227994 -6.890486 -63.181428 18.789955 97.309581 77.854905 95.344792 -15.800165 -17.856239 -1.035820 -0.388249 -1.335564 -0.195247
-45.232205 50.313942 4.563605 163.862445 -21.837092 0.080183 2.398653 14.718003 4.487437 0.184397 1.395321 0.321759 0.314641 2.345295 0.543574 2.104914 13.210976 3.293838 1.030731 15.979355 -1.420196 2.424961 -6.078467 -3.010060 6.613248 5.980438 0.637190 10.365111 -29.046146 -17.864061 30.557284 -46.266456 -17.368865 3.878453 4.746151 -32.202899 -12.926625 0.869013 -1.403221 -6.656048 -25.892410 12.316784 -44.413708 -37.304333 27.081334 2.832602 -2.301383 35.180199 5.118882 -59.269521 -2.219387 -95.890659 79.096074 -99.415905 -4.854124 -11.711728 6.055343 -0.598644 0.977984 -0.194629 -7.009939 -63.024772 19.131659 97.637927 77.868680 95.611421 -15.796680 -17.894215 -1.086259 -0.343660 -1.337740 -0.186946
-45.196563 50.302584 4.559750 163.623877 -21.900745 0.105448 2.501931 14.708621 4.548597 0.187583 1.394916 0.324622 0.320053 2.344611 0.548561 2.137742 13.202465 3.324162 1.064052 15.977841 -1.545520 2.531638 -6.075645 -3.255121 6.680079 5.938677 0.633726 10.508227 -29.003905 -17.910353 29.949890 -46.198151 -16.799374 3.749388 4.461272 -32.125715 -12.911592 0.814956 -1.417875 -6.633202 -25.894859 12.268470 -44.172364 -37.132200 26.802970 2.853528 -2.329450 35.118893 5.822147 -59.238560 -2.284913 -96.072711 79.061845 -99.534018 -5.109629 -11.584469 6.200463 -0.542029 0.935437 -0.140087 -7.113016 -62.908458 19.448522 97.871130 77.877757 95.803385 -15.807247 -17.939058 -1.131021 -0.317858 -1.317002 -0.181724
-45.158867 50.290524 4.558136 163.413551 -21.955524 0.121110 2.572426 14.687044 4.605700 0.189779 1.394848 0.327543 0.323728 2.344479 0.553583 2.160738 13.196363 3.353402 1.105399 15.983729 -1.687804 2.659030 -6.057859 -3.534299 6.758254 5.893807 0.628899 10.666301 -28.966754 -17.956540 29.338182 -46.120872 -16.206498 3.616863 4.169217 -32.043323 -12.890861 0.759580 -1.432724 -6.599758 -25.895197 12.211199 -43.921048 -36.959979 26.517779 2.867516 -2.354609 35.049242 6.436519 -59.216913 -2.267563 -96.165683 78.989161 -99.609092 -5.411359 -11.449611 6.392578 -0.486339 0.898825 -0.099585 -7.199258 -62.809016 19.726326 98.049895 77.882994 95.954226 -15.797271 -17.971536 -1.166684 -0.297051 -1.297287 -0.184650
-45.116927 50.278813 4.557435 163.216735 -22.013422 0.120322 2.632270 14.666230 4.674497 0.190794 1.394736 0.330400 0.325381 2.344161 0.558361 2.172401 13.191067 3.380790 1.153202 15.994758 -1.848679 2.804793 -6.029055 -3.850037 6.840058 5.846682 0.624263 10.851048 -28.933757 -18.005003 28.744910 -46.029587 -15.618434 3.490232 3.883270 -31.954750 -12.867385 0.709812 -1.445003 -6.558279 -25.895294 12.147466 -43.664332 -36.791363 26.227621 2.874910 -2.382279 34.973846 6.906034 -59.187065 -2.117662 -96.127398 78.869669 -99.621444 -5.620344 -11.346853 6.517781 -0.403128 0.876993 -0.023877 -7.301866 -62.707992 20.010467 98.213456 77.888458 96.103017 -15.784649 -18.006830 -1.200981 -0.286661 -1.270065 -0.192316
-45.074455 50.268087 4.555770 163.043209 -22.078496 0.120298 2.669295 14.653087 4.733475 0.190633 1.394013 0.332937 0.325156 2.342931 0.562533 2.173531 13.184483 3.404947 1.205703 16.008652 -2.026125 2.964995 -5.993345 -4.198038 6.919561 5.797318 0.626696 11.072931 -28.903522 -18.063696 28.189525 -45.923034 -15.055776 3.377745 3.616908 -31.860985 -12.842075 0.671474 -1.451164 -6.512088 -25.895337 12.079696 -43.417946 -36.628215 25.946092 2.880690 -2.410028 34.898711 7.229904 -59.143225 -1.862440 -95.954816 78.696556 -99.574004 -5.783270 -11.267819 6.649355 -0.328744 0.871843 0.042934 -7.322255 -62.619121 20.197724 98.341542 77.889523 96.265295 -15.809256 -18.031623 -1.231182 -0.259484 -1.269948 -0.208798
-45.032374 50.258733 4.552859 162.885937 -22.149637 0.124519 2.688192 14.645817 4.780713 0.189779 1.392582 0.334954 0.323724 2.340641 0.565883 2.167929 13.176154 3.424779 1.259832 16.024388 -2.215487 3.132174 -5.952888 -4.568600 6.996204 5.748383 0.641367 11.325371 -28.880848 -18.134764 27.694091 -45.798165 -14.533610 3.281684 3.379029 -31.773450 -12.818615 0.646510 -1.447987 -6.463459 -25.891539 12.009531 -43.190888 -36.472631 25.687110 2.885337 -2.432671 34.834702 7.407583 -59.086928 -1.506444 -95.647967 78.470262 -99.467585 -5.903276 -11.202386 6.818722 -0.289274 0.880004 0.080206 -7.329725 -62.526504 20.353877 98.451228 77.874960 96.415607 -15.855034 -18.055443 -1.265630 -0.262456 -1.270383 -0.225818
-44.991178 50.251098 4.548795 162.739801 -22.224186 0.131792 2.692167 14.640455 4.818869 0.188393 1.390745 0.336464 0.321356 2.337661 0.568441 2.156837 13.167207 3.440011 1.313704 16.043093 -2.412536 3.301192 -5.905837 -4.953167 7.071517 5.702426 0.666856 11.604359 -28.869055 -18.213418 27.262197 -45.652221 -14.061376 3.207715 3.168187 -31.692974 -12.798987 0.633584 -1.436466 -6.414415 -25.881136 11.939560 -42.983338 -36.324854 25.457540 2.886557 -2.448865 34.794498 7.441285 -59.018902 -1.055381 -95.215413 78.197278 -99.306323 -5.955565 -11.154876 7.001233 -0.286404 0.899746 0.096061 -7.458565 -62.400507 20.602478 98.571383 77.841565 96.512571 -15.903999 -18.102000 -1.325428 -0.269790 -1.228207 -0.213478
